<svg width="40" height="40" viewBox="0 0 40 40" fill="none" xmlns="http://www.w3.org/2000/svg">
<circle cx="20" cy="20" r="20" fill="#356CA3"/>
<path d="M23.2 21.575C23.6168 21.575 23.9834 21.4166 24.2998 21.0998C24.6166 20.7834 24.775 20.4084 24.775 19.9748C24.775 19.5584 24.6166 19.196 24.2998 18.8876C23.9834 18.5792 23.6168 18.425 23.2 18.425C22.7832 18.425 22.4166 18.5792 22.1002 18.8876C21.7834 19.196 21.625 19.5584 21.625 19.9748C21.625 20.4084 21.7834 20.7834 22.1002 21.0998C22.4166 21.4166 22.7832 21.575 23.2 21.575ZM20.3002 24.7748C19.7334 24.7748 19.275 24.5998 18.925 24.2498C18.575 23.8998 18.4 23.4498 18.4 22.8998V17.1248C18.4 16.5584 18.575 16.1002 18.925 15.7502C19.275 15.4002 19.7334 15.2252 20.3002 15.2252H27.1252C27.6752 15.2252 28.1292 15.4002 28.4872 15.7502C28.8456 16.1002 29.0248 16.5584 29.0248 17.1248V22.8998C29.0248 23.4498 28.8456 23.8998 28.4872 24.2498C28.1292 24.5998 27.6752 24.7748 27.1252 24.7748H20.3002ZM11.6752 29C11.2252 29 10.8334 28.8334 10.4998 28.5002C10.1666 28.1666 10 27.7748 10 27.3248V12.6752C10 12.2252 10.1666 11.8334 10.4998 11.4998C10.8334 11.1666 11.2252 11 11.6752 11H26.3248C26.7748 11 27.1666 11.1666 27.5002 11.4998C27.8334 11.8334 28 12.2252 28 12.6752V13.5752H20.3002C19.2666 13.5752 18.4124 13.9084 17.7376 14.5748C17.0624 15.2416 16.7248 16.0916 16.7248 17.1248V22.8998C16.7248 23.9334 17.0624 24.7834 17.7376 25.4498C18.4124 26.1166 19.2666 26.45 20.3002 26.45H28V27.3248C28 27.7748 27.8334 28.1666 27.5002 28.5002C27.1666 28.8334 26.7748 29 26.3248 29H11.6752Z" fill="white"/>
</svg>
