<svg width="40" height="40" viewBox="0 0 41 40" fill="none" xmlns="http://www.w3.org/2000/svg">
<circle cx="20.5" cy="20" r="20" fill="#356CA3"/>
<path d="M20.5 22C20.2168 22 19.9792 21.9042 19.7872 21.7126C19.5956 21.521 19.4998 21.2836 19.4998 21.0004C19.4998 20.7168 19.5956 20.4792 19.7872 20.2876C19.9792 20.096 20.2168 20.0002 20.5 20.0002C20.7832 20.0002 21.0208 20.096 21.2128 20.2876C21.4044 20.4792 21.5002 20.7168 21.5002 21.0004C21.5002 21.2836 21.4044 21.521 21.2128 21.7126C21.0208 21.9042 20.7832 22 20.5 22ZM16.4998 22C16.2166 22 15.9792 21.9042 15.7876 21.7126C15.596 21.521 15.5002 21.2836 15.5002 21.0004C15.5002 20.7168 15.596 20.4792 15.7876 20.2876C15.9792 20.096 16.2166 20.0002 16.4998 20.0002C16.7834 20.0002 17.021 20.096 17.2126 20.2876C17.4042 20.4792 17.5 20.7168 17.5 21.0004C17.5 21.2836 17.4042 21.521 17.2126 21.7126C17.021 21.9042 16.7834 22 16.4998 22ZM24.5002 22C24.2166 22 23.979 21.9042 23.7874 21.7126C23.5958 21.521 23.5 21.2836 23.5 21.0004C23.5 20.7168 23.5958 20.4792 23.7874 20.2876C23.979 20.096 24.2166 20.0002 24.5002 20.0002C24.7834 20.0002 25.0208 20.096 25.2124 20.2876C25.404 20.4792 25.4998 20.7168 25.4998 21.0004C25.4998 21.2836 25.404 21.521 25.2124 21.7126C25.0208 21.9042 24.7834 22 24.5002 22ZM20.5 26.0002C20.2168 26.0002 19.9792 25.9044 19.7872 25.7128C19.5956 25.5212 19.4998 25.2836 19.4998 25C19.4998 24.7168 19.5956 24.4794 19.7872 24.2878C19.9792 24.0962 20.2168 24.0004 20.5 24.0004C20.7832 24.0004 21.0208 24.0962 21.2128 24.2878C21.4044 24.4794 21.5002 24.7168 21.5002 25C21.5002 25.2836 21.4044 25.5212 21.2128 25.7128C21.0208 25.9044 20.7832 26.0002 20.5 26.0002ZM16.4998 26.0002C16.2166 26.0002 15.9792 25.9044 15.7876 25.7128C15.596 25.5212 15.5002 25.2836 15.5002 25C15.5002 24.7168 15.596 24.4794 15.7876 24.2878C15.9792 24.0962 16.2166 24.0004 16.4998 24.0004C16.7834 24.0004 17.021 24.0962 17.2126 24.2878C17.4042 24.4794 17.5 24.7168 17.5 25C17.5 25.2836 17.4042 25.5212 17.2126 25.7128C17.021 25.9044 16.7834 26.0002 16.4998 26.0002ZM24.5002 26.0002C24.2166 26.0002 23.979 25.9044 23.7874 25.7128C23.5958 25.5212 23.5 25.2836 23.5 25C23.5 24.7168 23.5958 24.4794 23.7874 24.2878C23.979 24.0962 24.2166 24.0004 24.5002 24.0004C24.7834 24.0004 25.0208 24.0962 25.2124 24.2878C25.404 24.4794 25.4998 24.7168 25.4998 25C25.4998 25.2836 25.404 25.5212 25.2124 25.7128C25.0208 25.9044 24.7834 26.0002 24.5002 26.0002ZM13.1752 30.0004C12.7252 30.0004 12.3334 29.8336 11.9998 29.5C11.6666 29.1668 11.5 28.7752 11.5 28.3252V13.3252C11.5 12.8752 11.6666 12.4878 11.9998 12.163C12.3334 11.8378 12.7252 11.6752 13.1752 11.6752H14.575V10.8754C14.575 10.6254 14.6584 10.417 14.8252 10.2502C14.9916 10.0834 15.1998 10 15.4498 10C15.6998 10 15.9082 10.0834 16.075 10.2502C16.2418 10.417 16.3252 10.6254 16.3252 10.8754V11.6752H24.6748V10.8754C24.6748 10.6254 24.7582 10.417 24.925 10.2502C25.0918 10.0834 25.2918 10 25.525 10C25.775 10 25.9876 10.0834 26.1628 10.2502C26.3376 10.417 26.425 10.6254 26.425 10.8754V11.6752H27.8248C28.2748 11.6752 28.6666 11.8378 29.0002 12.163C29.3334 12.4878 29.5 12.8752 29.5 13.3252V28.3252C29.5 28.7752 29.3334 29.1668 29.0002 29.5C28.6666 29.8336 28.2748 30.0004 27.8248 30.0004H13.1752ZM13.1752 28.3252H27.8248V17.8252H13.1752V28.3252Z" fill="white"/>
</svg>
