<svg width="40" height="40" viewBox="0 0 40 40" fill="none" xmlns="http://www.w3.org/2000/svg">
<circle cx="20" cy="20" r="20" fill="#356CA3"/>
<path d="M12.6752 29C12.2252 29 11.8334 28.8334 11.4998 28.5002C11.1666 28.1666 11 27.7748 11 27.3248V12.6752C11 12.2252 11.1666 11.8334 11.4998 11.4998C11.8334 11.1666 12.2252 11 12.6752 11H27.3248C27.7748 11 28.1666 11.1666 28.5002 11.4998C28.8334 11.8334 29 12.2252 29 12.6752V27.3248C29 27.7748 28.8334 28.1666 28.5002 28.5002C28.1666 28.8334 27.7748 29 27.3248 29H12.6752ZM15.6752 24.9002C15.8916 24.9002 16.0832 24.8168 16.25 24.65C16.4168 24.4832 16.5002 24.2916 16.5002 24.0752C16.5002 23.8416 16.4168 23.6416 16.25 23.4752C16.0832 23.3084 15.8916 23.225 15.6752 23.225C15.4416 23.225 15.2416 23.3084 15.0752 23.4752C14.9084 23.6416 14.825 23.8416 14.825 24.0752C14.825 24.2916 14.9084 24.4832 15.0752 24.65C15.2416 24.8168 15.4416 24.9002 15.6752 24.9002ZM15.6752 20.825C15.8916 20.825 16.0832 20.7458 16.25 20.5874C16.4168 20.429 16.5002 20.2332 16.5002 20C16.5002 19.7668 16.4168 19.571 16.25 19.4126C16.0832 19.2542 15.8916 19.175 15.6752 19.175C15.4416 19.175 15.2416 19.2542 15.0752 19.4126C14.9084 19.571 14.825 19.7668 14.825 20C14.825 20.2332 14.9084 20.429 15.0752 20.5874C15.2416 20.7458 15.4416 20.825 15.6752 20.825ZM15.6752 16.775C15.8916 16.775 16.0832 16.6916 16.25 16.5248C16.4168 16.3584 16.5002 16.1584 16.5002 15.9248C16.5002 15.7084 16.4168 15.5168 16.25 15.35C16.0832 15.1832 15.8916 15.0998 15.6752 15.0998C15.4416 15.0998 15.2416 15.1832 15.0752 15.35C14.9084 15.5168 14.825 15.7084 14.825 15.9248C14.825 16.1584 14.9084 16.3584 15.0752 16.5248C15.2416 16.6916 15.4416 16.775 15.6752 16.775ZM19.7 24.9002H24.0998C24.3334 24.9002 24.5292 24.821 24.6872 24.6626C24.8456 24.5042 24.9248 24.3084 24.9248 24.0752C24.9248 23.8252 24.8456 23.621 24.6872 23.4626C24.5292 23.3042 24.3334 23.225 24.0998 23.225H19.7C19.4668 23.225 19.271 23.3084 19.1126 23.4752C18.9542 23.6416 18.875 23.8416 18.875 24.0752C18.875 24.3084 18.9542 24.5042 19.1126 24.6626C19.271 24.821 19.4668 24.9002 19.7 24.9002ZM19.7 20.825H24.0998C24.3334 20.825 24.5292 20.7458 24.6872 20.5874C24.8456 20.429 24.9248 20.2332 24.9248 20C24.9248 19.7668 24.8456 19.571 24.6872 19.4126C24.5292 19.2542 24.3334 19.175 24.0998 19.175H19.7C19.4668 19.175 19.271 19.2542 19.1126 19.4126C18.9542 19.571 18.875 19.7668 18.875 20C18.875 20.2332 18.9542 20.429 19.1126 20.5874C19.271 20.7458 19.4668 20.825 19.7 20.825ZM19.7 16.775H24.0998C24.3334 16.775 24.5292 16.6916 24.6872 16.5248C24.8456 16.3584 24.9248 16.1584 24.9248 15.9248C24.9248 15.6916 24.8456 15.4958 24.6872 15.3374C24.5292 15.179 24.3334 15.0998 24.0998 15.0998H19.7C19.4668 15.0998 19.271 15.179 19.1126 15.3374C18.9542 15.4958 18.875 15.6916 18.875 15.9248C18.875 16.1748 18.9542 16.379 19.1126 16.5374C19.271 16.6958 19.4668 16.775 19.7 16.775Z" fill="white"/>
</svg>
