<svg width="41" height="40" viewBox="0 0 41 40" fill="none" xmlns="http://www.w3.org/2000/svg">
<circle cx="20.5" cy="20" r="20" fill="#356CA3"/>
<path d="M17.3248 25.8248H23.6752C23.9252 25.8248 24.1292 25.7456 24.2872 25.5872C24.4456 25.4292 24.5248 25.2334 24.5248 24.9998C24.5248 24.7666 24.4456 24.5708 24.2872 24.4124C24.1292 24.254 23.9252 24.1748 23.6752 24.1748H17.3248C17.0748 24.1748 16.8708 24.254 16.7128 24.4124C16.5544 24.5708 16.4752 24.7666 16.4752 24.9998C16.4752 25.2334 16.5544 25.4292 16.7128 25.5872C16.8708 25.7456 17.0748 25.8248 17.3248 25.8248ZM17.3248 21.6752H23.6752C23.9252 21.6752 24.1292 21.5918 24.2872 21.425C24.4456 21.2582 24.5248 21.0582 24.5248 20.825C24.5248 20.5918 24.4456 20.396 24.2872 20.2376C24.1292 20.0792 23.9252 20 23.6752 20H17.3248C17.0748 20 16.8708 20.0792 16.7128 20.2376C16.5544 20.396 16.4752 20.5918 16.4752 20.825C16.4752 21.075 16.5544 21.2792 16.7128 21.4376C16.8708 21.596 17.0748 21.6752 17.3248 21.6752ZM14.1748 30.0002C13.7248 30.0002 13.3332 29.8334 13 29.4998C12.6668 29.1666 12.5002 28.775 12.5002 28.325V11.675C12.5002 11.225 12.6668 10.8334 13 10.5002C13.3332 10.1666 13.7248 9.99976 14.1748 9.99976H22.15C22.3832 9.99976 22.604 10.0458 22.8124 10.1378C23.0208 10.2294 23.2 10.3502 23.35 10.5002L28 15.1502C28.15 15.3002 28.2708 15.4794 28.3624 15.6878C28.454 15.8958 28.4998 16.1166 28.4998 16.3502V28.325C28.4998 28.775 28.3332 29.1666 28 29.4998C27.6668 29.8334 27.2752 30.0002 26.8252 30.0002H14.1748ZM22.0252 15.6002C22.0252 15.8334 22.1044 16.0292 22.2628 16.1876C22.4208 16.346 22.6166 16.4252 22.8502 16.4252H26.8252L22.0252 11.675V15.6002Z" fill="white"/>
</svg>
