<svg width="40" height="40" viewBox="0 0 40 40" fill="none" xmlns="http://www.w3.org/2000/svg">
<circle cx="20" cy="20" r="20" fill="#356CA3"/>
<path d="M12.4502 22.7252C12.2834 22.2916 12.1666 21.8498 12.0998 21.3998C12.0334 20.9498 12.0002 20.4998 12.0002 20.0498C12.0002 17.8498 12.7834 15.9624 14.3498 14.3876C15.9166 12.8124 17.8 12.0248 20 12.0248H20.7752L19.4498 10.7252C19.2998 10.5752 19.229 10.3876 19.2374 10.1624C19.2458 9.93764 19.325 9.75024 19.475 9.60024C19.625 9.45024 19.8124 9.37524 20.0372 9.37524C20.2624 9.37524 20.45 9.45024 20.6 9.60024L23.2502 12.275C23.3502 12.375 23.4168 12.4708 23.45 12.5624C23.4832 12.654 23.4998 12.7582 23.4998 12.875C23.4998 12.975 23.4832 13.075 23.45 13.175C23.4168 13.275 23.3502 13.3666 23.2502 13.4498L20.6 16.1252C20.45 16.2752 20.2584 16.3502 20.0252 16.3502C19.7916 16.3502 19.5998 16.2752 19.4498 16.1252C19.2998 15.9752 19.2248 15.7834 19.2248 15.5498C19.2248 15.3166 19.2998 15.125 19.4498 14.975L20.75 13.7H20C18.25 13.7 16.7584 14.3208 15.5252 15.5624C14.2916 16.804 13.6748 18.2998 13.6748 20.0498C13.6748 20.4334 13.704 20.8002 13.7624 21.1502C13.8208 21.5002 13.9084 21.8334 14.0252 22.1498C14.0584 22.2834 14.0584 22.4292 14.0252 22.5872C13.9916 22.7456 13.9248 22.8748 13.8248 22.9748C13.5916 23.2084 13.3334 23.3044 13.0502 23.2628C12.7666 23.2208 12.5666 23.0416 12.4502 22.7252ZM19.4 30.425L16.7 27.7748C16.6168 27.6748 16.5584 27.579 16.5248 27.4874C16.4916 27.3958 16.475 27.2916 16.475 27.1748C16.475 27.0748 16.4916 26.9748 16.5248 26.8748C16.5584 26.7748 16.6168 26.6832 16.7 26.6L19.4 23.9252C19.55 23.7752 19.7334 23.7002 19.9502 23.7002C20.1666 23.7002 20.3498 23.7752 20.4998 23.9252C20.6498 24.0752 20.7248 24.2584 20.7248 24.4748C20.7248 24.6916 20.6498 24.875 20.4998 25.025L19.2002 26.3498H20C21.75 26.3498 23.2416 25.729 24.4748 24.4874C25.7084 23.2458 26.3252 21.75 26.3252 20C26.3252 19.6168 26.296 19.2502 26.2376 18.9002C26.1792 18.5502 26.0916 18.2084 25.9748 17.8748C25.9416 17.7416 25.9376 17.6 25.9628 17.45C25.9876 17.3 26.05 17.175 26.15 17.075C26.4 16.8418 26.6624 16.746 26.9372 16.7876C27.2124 16.8292 27.4084 17.0084 27.5252 17.3252C27.6916 17.7584 27.8124 18.2 27.8876 18.65C27.9624 19.1 27.9998 19.55 27.9998 20C27.9998 22.2 27.2166 24.0876 25.6502 25.6628C24.0834 27.2376 22.2 28.025 20 28.025H19.2002L20.4998 29.3252C20.6498 29.4752 20.7248 29.6584 20.7248 29.8748C20.7248 30.0916 20.6498 30.275 20.4998 30.425C20.3498 30.575 20.1666 30.65 19.9502 30.65C19.7334 30.65 19.55 30.575 19.4 30.425Z" fill="white"/>
</svg>
